<!-- icon666.com - MILLIONS vector ICONS FREE --><svg id="Capa_1" enable-background="new 0 0 512.221 512.221" viewBox="0 0 512.221 512.221" xmlns="http://www.w3.org/2000/svg"><g><g id="Page-1_7_"><g id="_x30_08---Cool-Sun" transform="translate(-1 -1)"><g id="Path_44_"><path clip-rule="evenodd" d="m84.472 124.104-41.007.265c-3.382.01-6.503 1.821-8.19 4.753s-1.684 6.54.007 9.469l20.252 35.404c7.391-17.839 17.123-34.617 28.938-49.891z" fill-rule="evenodd"></path></g><g id="Path_43_"><path clip-rule="evenodd" d="m39.036 257.11c.019-9.634.675-19.257 1.963-28.805l-35.299 20.651c-2.906 1.701-4.691 4.816-4.691 8.183s1.786 6.481 4.691 8.183l35.3 20.613c-1.289-9.555-1.944-19.184-1.964-28.825z" fill-rule="evenodd"></path></g><g id="Path_42_"><path clip-rule="evenodd" d="m389.927 470.728.199-40.988c-15.276 11.815-32.053 21.549-49.892 28.947l35.508 20.233c2.928 1.673 6.525 1.664 9.445-.022 2.921-1.687 4.726-4.797 4.74-8.17z" fill-rule="evenodd"></path></g><g id="Path_41_"><path clip-rule="evenodd" d="m43.502 389.927 40.979.199c-11.813-15.272-21.544-32.046-28.937-49.882l-20.234 35.508c-1.668 2.928-1.657 6.52.029 9.438 1.686 2.917 4.794 4.721 8.163 4.737z" fill-rule="evenodd"></path></g><g id="Path_40_"><path clip-rule="evenodd" d="m138.526 478.977 35.48-20.252c-17.842-7.394-34.622-17.125-49.901-28.937l.265 40.969c.01 3.369 1.807 6.479 4.72 8.171 2.913 1.691 6.505 1.71 9.436.049z" fill-rule="evenodd"></path></g><g id="Path_39_"><path clip-rule="evenodd" d="m228.306 473.222 20.641 35.3c1.7 2.91 4.817 4.7 8.187 4.7s6.487-1.789 8.187-4.7l20.613-35.29c-19.12 2.617-38.508 2.617-57.628 0z" fill-rule="evenodd"></path></g><g id="Path_38_"><path clip-rule="evenodd" d="m470.719 124.294-40.979-.199c11.813 15.272 21.544 32.046 28.937 49.882l20.234-35.508c1.668-2.928 1.657-6.52-.029-9.438-1.686-2.917-4.794-4.721-8.163-4.737z" fill-rule="evenodd"></path></g><g id="Path_37_"><path clip-rule="evenodd" d="m508.521 248.9-35.3-20.613c2.617 19.12 2.617 38.508 0 57.628l35.3-20.651c2.906-1.701 4.691-4.816 4.691-8.183.001-3.366-1.785-6.48-4.691-8.181z" fill-rule="evenodd"></path></g><g id="Path_36_"><path clip-rule="evenodd" d="m375.695 35.244-35.48 20.29c17.842 7.394 34.622 17.125 49.901 28.937l-.266-41.007c-.01-3.369-1.807-6.479-4.72-8.171-2.912-1.691-6.504-1.71-9.435-.049z" fill-rule="evenodd"></path></g><g id="Path_35_"><path clip-rule="evenodd" d="m285.915 40.999-20.641-35.299c-1.7-2.91-4.817-4.7-8.187-4.7s-6.487 1.789-8.187 4.7l-20.613 35.3c19.12-2.618 38.508-2.618 57.628-.001z" fill-rule="evenodd"></path></g><g id="Path_34_"><path clip-rule="evenodd" d="m124.294 43.493-.199 40.988c15.276-11.815 32.053-21.549 49.892-28.947l-35.508-20.233c-2.928-1.673-6.525-1.664-9.445.022-2.921 1.687-4.726 4.797-4.74 8.17z" fill-rule="evenodd"></path></g><g id="Shape_15_"><path d="m257.11 57.999c-109.966 0-199.111 89.145-199.111 199.111s89.145 199.111 199.111 199.111 199.111-89.145 199.111-199.111c-.125-109.914-89.196-198.985-199.111-199.111zm47.408 303.408c0 26.182-21.225 47.407-47.407 47.407s-47.407-21.225-47.407-47.407v-9.481c0-5.236 4.245-9.481 9.481-9.481h75.852c5.236 0 9.481 4.245 9.481 9.481zm122.311-116.243-8.533 4.248v17.18c-.031 31.406-25.483 56.858-56.889 56.889h-32.948c-29.601-.092-55.593-19.7-63.81-48.137l-4.58-15.995c-.501-1.193-1.669-1.968-2.963-1.968s-2.462.776-2.963 1.968l-4.57 16.005c-8.221 28.434-34.212 48.038-63.81 48.128h-32.948c-31.406-.031-56.858-25.483-56.889-56.889v-17.18l-8.486-4.248c-6.438-3.197-10.501-9.774-10.477-16.962v-11.863c-.037-8.335 5.403-15.706 13.378-18.129 20.347-5.535 41.396-8.052 62.473-7.471 18.014-.056 35.993 1.576 53.703 4.873 16.682 3.125 33.621 4.668 50.593 4.608 16.972.06 33.911-1.483 50.593-4.608 17.71-3.298 35.689-4.929 53.703-4.873 21.076-.587 42.124 1.918 62.473 7.433 7.986 2.432 13.426 9.819 13.378 18.167v11.89c.024 7.167-4.017 13.728-10.428 16.934z"></path></g><g id="Shape_14_"><path d="m310.814 214.311c-17.71 3.298-35.689 4.929-53.703 4.873-18.014.056-35.994-1.576-53.703-4.873-16.682-3.125-33.621-4.668-50.593-4.608-19.184-.556-38.348 1.68-56.889 6.637v11.899l13.72 6.865c3.212 1.605 5.241 4.886 5.243 8.476v23.012c0 20.946 16.98 37.926 37.926 37.926h32.948c21.139-.067 39.701-14.071 45.568-34.38l4.58-15.995c2.699-9.471 11.352-16.004 21.201-16.004 9.848 0 18.502 6.532 21.201 16.004l4.58 15.995c5.867 20.309 24.428 34.313 45.568 34.38h32.948c20.946 0 37.926-16.98 37.926-37.926v-23.049c.002-3.59 2.032-6.872 5.243-8.476l13.72-6.865v-11.862c-18.539-4.966-37.704-7.202-56.889-6.637-16.974-.06-33.914 1.483-50.595 4.608zm-160.778 40.021c-3.72 3.593-9.634 3.542-13.291-.115s-3.709-9.571-.115-13.291l9.481-9.481c3.72-3.593 9.634-3.542 13.291.116s3.709 9.571.116 13.291zm47.408 0-28.444 28.444c-3.72 3.593-9.634 3.542-13.291-.116-3.657-3.657-3.709-9.571-.116-13.291l28.444-28.444c3.72-3.593 9.634-3.542 13.291.115s3.709 9.572.116 13.292zm116.555 2.778c-3.834-.001-7.291-2.311-8.758-5.853s-.656-7.62 2.054-10.332l9.481-9.481c3.72-3.593 9.634-3.542 13.291.116s3.709 9.571.116 13.291l-9.482 9.481c-1.776 1.779-4.187 2.778-6.702 2.778zm54.111-2.778-28.444 28.444c-3.72 3.593-9.634 3.542-13.291-.116-3.657-3.657-3.709-9.571-.115-13.291l28.444-28.444c3.72-3.593 9.634-3.542 13.291.115 3.657 3.658 3.708 9.572.115 13.292z"></path></g><g id="Path_33_"><path clip-rule="evenodd" d="m257.11 389.851c15.709 0 28.444-12.735 28.444-28.444h-56.889c.001 15.709 12.736 28.444 28.445 28.444z" fill-rule="evenodd"></path></g><g id="Path_32_"><path clip-rule="evenodd" d="m429.749 390.117 41.007-.265c3.368-.02 6.472-1.825 8.156-4.741 1.684-2.917 1.694-6.508.027-9.434l-20.252-35.451c-7.391 17.839-17.123 34.617-28.938 49.891z" fill-rule="evenodd"></path></g></g></g></g></svg>