<!-- icon666.com - MILLIONS vector ICONS FREE --><svg viewBox="0 -1 512 511" xmlns="http://www.w3.org/2000/svg"><path d="m155 120.617188c-44.996094 0-85.566406 19.277343-113.90625 50h46.203125c40.945313 0 80.507813 12.132812 114.414063 35.089843 33.90625 22.953125 59.863281 55.179688 75.070312 93.195313 2.136719 5.347656 3.21875 10.96875 3.21875 16.714844 0 61.589843-49.878906 153.871093-55.5625 164.191406-1 1.808594-2.117188 3.527344-3.332031 5.164062 23.199219 5.265625 45.675781 13.308594 67.1875 24.0625 2.117187 1.058594 4.414062 1.582032 6.707031 1.582032 2.742188 0 5.476562-.75 7.886719-2.238282 4.421875-2.734375 7.113281-7.5625 7.113281-12.761718v-220c0-85.464844-69.53125-155-155-155zm0 0"></path><path d="m249.59375 310.046875c-13.183594-32.960937-35.84375-60.820313-65.464844-80.457031-28.914062-19.167969-63.039062-28.972656-97.730468-28.972656h-57.078126c-5.746093 0-11.023437 3.269531-13.496093 8.457031-12.226563 25.644531-17.125 53.199219-14.445313 81.542969h117.71875c-13.640625 31-44.257812 51.054687-78.125 51.171874l-40.972656.140626v154.023437c.667969 7.949219 7.382812 14.664063 15.667969 14.664063h5.300781c58.914062 0 118.121094-13.488282 171.21875-39.011719 2.8125-1.351563 5.132812-3.546875 6.640625-6.277344 2.117187-3.839844 51.839844-94.695313 51.839844-149.710937 0-1.90625-.367188-3.800782-1.074219-5.570313zm-73.925781 26.550781c-8.285157 0-15-6.71875-15-15 0-8.285156 6.714843-15 15-15 8.28125 0 15 6.714844 15 15 0 8.28125-6.71875 15-15 15zm0 0"></path><path d="m509.628906 408.644531-9.28125-14.492187c-18.21875-28.445313-45-49.851563-76.359375-61.34375 14.25-66.632813 3.488281-135.242188-30.832031-194.691406-36.726562-63.613282-96.03125-109.117188-166.984375-128.128907-70.949219-19.011719-145.058594-9.253906-208.675781 27.472657-3.441406 1.992187-5.957032 5.265624-6.988282 9.109374-1.027343 3.84375-.488281 7.9375 1.5 11.382813l37.863282 65.578125c30.695312-21.199219 67.402344-32.914062 105.125-32.914062 102.011718 0 185 82.992187 185 185v65.101562l62.335937 16.707031c30.121094 7.898438 55.957031 26.6875 72.753907 52.90625l9.28125 14.492188c2.863281 4.472656 7.703124 6.914062 12.644531 6.914062 2.769531 0 5.570312-.769531 8.078125-2.371093 6.972656-4.46875 9.007812-13.746094 4.539062-20.722657zm0 0"></path></svg>